<?xml version="1.0" encoding="utf-8"?>
<!-- Generator: Adobe Illustrator 23.0.1, SVG Export Plug-In . SVG Version: 6.00 Build 0)  -->
<svg version="1.1" id="Слой_1" xmlns="http://www.w3.org/2000/svg" xmlns:xlink="http://www.w3.org/1999/xlink" x="0px" y="0px"
	 viewBox="0 0 224 202" style="enable-background:new 0 0 224 202;" xml:space="preserve">
<style type="text/css">
	.st0{fill:#403E51;}
</style>
<g>
	<g>
		<path class="st0" d="M142.9,64.5c-2.1,0-4.1-1.1-5.2-3l-17.5-30.2c-1.7-3-4.8-4.7-8.2-4.7s-6.5,1.8-8.2,4.7L86.3,61.5
			c-1.1,1.9-3.1,3-5.2,3h-5.8c-2.1,0-4.1-1.1-5.2-3s-1.1-4.1,0-6l18.9-32.7c4.8-8.3,13.4-13.2,22.9-13.2s18.2,5,22.9,13.2l18.9,32.7
			c1.1,1.9,1.1,4.1,0,6c-1.1,1.9-3.1,3-5.2,3H142.9z"/>
		<path class="st0" d="M112,15.5c7.4,0,14,3.8,17.7,10.2l18.9,32.7h-5.8l-17.5-30.2c-3-5.2-8.2-7.7-13.4-7.7s-10.4,2.6-13.4,7.7
			L81.1,58.5h-5.8l18.9-32.7C98,19.4,104.6,15.5,112,15.5 M112,3.5c-11.7,0-22.3,6.1-28.1,16.2L65,52.5c-2.1,3.7-2.1,8.3,0,12
			c2.1,3.7,6.1,6,10.4,6h5.8c4.3,0,8.2-2.3,10.4-6L109,34.3c0.9-1.5,2.3-1.7,3-1.7c0.8,0,2.1,0.2,3,1.7l17.5,30.2
			c2.1,3.7,6.1,6,10.4,6h5.8c4.3,0,8.2-2.3,10.4-6c2.1-3.7,2.1-8.3,0-12l-18.9-32.7C134.3,9.6,123.7,3.5,112,3.5L112,3.5z"/>
	</g>
	<g>
		<path class="st0" d="M37.5,191.5c-9.6,0-18.2-5-22.9-13.2c-4.8-8.3-4.8-18.2,0-26.5L33.5,119c1.1-1.9,3.1-3,5.2-3s4.1,1.1,5.2,3
			l2.9,5c1.1,1.9,1.1,4.1,0,6l-17.5,30.2c-1.7,3-1.7,6.5,0,9.5c1.7,3,4.8,4.7,8.2,4.7h34.9c2.1,0,4.1,1.1,5.2,3l2.9,5
			c1.1,1.9,1.1,4.1,0,6s-3.1,3-5.2,3H37.5z"/>
		<path class="st0" d="M38.7,122l2.9,5l-17.5,30.2c-6,10.3,1.5,23.2,13.4,23.2h34.9l2.9,5H37.5c-7.4,0-14-3.8-17.7-10.2
			c-3.7-6.4-3.7-14.1,0-20.5L38.7,122 M38.7,110c-4.3,0-8.2,2.3-10.4,6L9.4,148.7c-5.9,10.2-5.9,22.3,0,32.5
			c5.9,10.2,16.4,16.2,28.1,16.2h37.8c4.3,0,8.2-2.3,10.4-6c2.1-3.7,2.1-8.3,0-12l-2.9-5c-2.1-3.7-6.1-6-10.4-6H37.5
			c-1.8,0-2.7-1.1-3-1.7c-0.4-0.7-0.9-2,0-3.5L52,133c2.1-3.7,2.1-8.3,0-12l-2.9-5C46.9,112.3,43,110,38.7,110L38.7,110z"/>
	</g>
	<g>
		<path class="st0" d="M148.7,191.5c-2.1,0-4.1-1.1-5.2-3c-1.1-1.9-1.1-4.1,0-6l2.9-5c1.1-1.9,3.1-3,5.2-3h34.9
			c3.4,0,6.5-1.8,8.2-4.7c1.7-3,1.7-6.5,0-9.5L177.2,130c-1.1-1.9-1.1-4.1,0-6l2.9-5c1.1-1.9,3.1-3,5.2-3s4.1,1.1,5.2,3l18.9,32.7
			c4.8,8.3,4.8,18.2,0,26.5c-4.8,8.3-13.4,13.2-22.9,13.2H148.7z"/>
		<path class="st0" d="M185.3,122l18.9,32.7c3.7,6.4,3.7,14.1,0,20.5c-3.7,6.4-10.3,10.2-17.7,10.2h-37.8l2.9-5h34.9
			c11.9,0,19.4-12.9,13.4-23.2L182.4,127L185.3,122 M185.3,110c-4.3,0-8.2,2.3-10.4,6l-2.9,5c-2.1,3.7-2.1,8.3,0,12l17.5,30.2
			c0.9,1.5,0.4,2.8,0,3.5c-0.4,0.7-1.3,1.7-3,1.7h-34.9c-4.3,0-8.2,2.3-10.4,6l-2.9,5c-2.1,3.7-2.1,8.3,0,12c2.1,3.7,6.1,6,10.4,6
			h37.8c11.7,0,22.3-6.1,28.1-16.2c5.9-10.2,5.9-22.3,0-32.5L195.7,116C193.6,112.3,189.6,110,185.3,110L185.3,110z"/>
	</g>
</g>
</svg>
