<?xml version="1.0" encoding="utf-8"?>
<!-- Generator: Adobe Illustrator 23.0.1, SVG Export Plug-In . SVG Version: 6.00 Build 0)  -->
<svg version="1.1" id="Слой_1" xmlns="http://www.w3.org/2000/svg" xmlns:xlink="http://www.w3.org/1999/xlink" x="0px" y="0px"
	 viewBox="0 0 203 184" style="enable-background:new 0 0 203 184;" xml:space="preserve">
<style type="text/css">
	.st0{fill:#FBDB4A;}
</style>
<g>
	<g>
		<path class="st0" d="M132.9,52.5c-0.7,0-1.4-0.4-1.7-1l-17.5-30.2c-2.4-4.2-6.8-6.7-11.7-6.7s-9.2,2.5-11.7,6.7L72.9,51.5
			c-0.4,0.6-1,1-1.7,1h-5.8c-0.7,0-1.4-0.4-1.7-1c-0.4-0.6-0.4-1.4,0-2l18.9-32.7c4.1-7,11.3-11.2,19.5-11.2s15.4,4.2,19.5,11.2
			l18.9,32.7c0.4,0.6,0.4,1.4,0,2c-0.4,0.6-1,1-1.7,1H132.9z"/>
		<path class="st0" d="M102,7.5c7.4,0,14,3.8,17.7,10.2l18.9,32.7h-5.8l-17.5-30.2c-3-5.2-8.2-7.7-13.4-7.7s-10.4,2.6-13.4,7.7
			L71.1,50.5h-5.8l18.9-32.7C88,11.4,94.6,7.5,102,7.5 M102,3.5c-8.9,0-16.8,4.6-21.2,12.2L61.9,48.5c-0.7,1.2-0.7,2.8,0,4
			c0.7,1.2,2,2,3.5,2h5.8c1.4,0,2.7-0.8,3.5-2L92,22.3c2.1-3.6,5.8-5.7,10-5.7s7.9,2.1,10,5.7l17.5,30.2c0.7,1.2,2,2,3.5,2h5.8
			c1.4,0,2.7-0.8,3.5-2c0.7-1.2,0.7-2.8,0-4l-18.9-32.7C118.8,8.1,110.9,3.5,102,3.5L102,3.5z"/>
	</g>
	<g>
		<path class="st0" d="M27.5,179.5c-8.1,0-15.4-4.2-19.5-11.2c-4.1-7-4.1-15.5,0-22.5L27,113c0.4-0.6,1-1,1.7-1s1.4,0.4,1.7,1l2.9,5
			c0.4,0.6,0.4,1.4,0,2l-17.5,30.2c-2.4,4.2-2.4,9.3,0,13.5c2.4,4.2,6.8,6.7,11.7,6.7h34.9c0.7,0,1.4,0.4,1.7,1l2.9,5
			c0.4,0.6,0.4,1.4,0,2c-0.4,0.6-1,1-1.7,1H27.5z"/>
		<path class="st0" d="M28.7,114l2.9,5l-17.5,30.2c-6,10.3,1.5,23.2,13.4,23.2h34.9l2.9,5H27.5c-7.4,0-14-3.8-17.7-10.2
			c-3.7-6.4-3.7-14.1,0-20.5L28.7,114 M28.7,110c-1.4,0-2.7,0.8-3.5,2L6.3,144.7c-4.4,7.7-4.4,16.8,0,24.5
			c4.4,7.7,12.4,12.2,21.2,12.2h37.8c1.4,0,2.7-0.8,3.5-2c0.7-1.2,0.7-2.8,0-4l-2.9-5c-0.7-1.2-2-2-3.5-2H27.5
			c-4.2,0-7.9-2.1-10-5.7c-2.1-3.6-2.1-7.9,0-11.5L35,121c0.7-1.2,0.7-2.8,0-4l-2.9-5C31.4,110.8,30.1,110,28.7,110L28.7,110z"/>
	</g>
	<g>
		<path class="st0" d="M138.7,179.5c-0.7,0-1.4-0.4-1.7-1c-0.4-0.6-0.4-1.4,0-2l2.9-5c0.4-0.6,1-1,1.7-1h34.9
			c4.9,0,9.2-2.5,11.7-6.7c2.4-4.2,2.4-9.3,0-13.5L170.7,120c-0.4-0.6-0.4-1.4,0-2l2.9-5c0.4-0.6,1-1,1.7-1s1.4,0.4,1.7,1l18.9,32.7
			c4.1,7,4.1,15.5,0,22.5c-4.1,7-11.3,11.2-19.5,11.2H138.7z"/>
		<path class="st0" d="M175.3,114l18.9,32.7c3.7,6.4,3.7,14.1,0,20.5c-3.7,6.4-10.3,10.2-17.7,10.2h-37.8l2.9-5h34.9
			c11.9,0,19.4-12.9,13.4-23.2L172.4,119L175.3,114 M175.3,110c-1.4,0-2.7,0.8-3.5,2l-2.9,5c-0.7,1.2-0.7,2.8,0,4l17.5,30.2
			c2.1,3.6,2.1,7.9,0,11.5c-2.1,3.6-5.8,5.7-10,5.7h-34.9c-1.4,0-2.7,0.8-3.5,2l-2.9,5c-0.7,1.2-0.7,2.8,0,4c0.7,1.2,2,2,3.5,2h37.8
			c8.9,0,16.8-4.6,21.2-12.2c4.4-7.7,4.4-16.8,0-24.5L178.8,112C178.1,110.8,176.7,110,175.3,110L175.3,110z"/>
	</g>
</g>
</svg>
